# xmcd
#
# Track frame offsets:
#	150
#	16325
#	31822
#	52161
#	64796
#	81116
#	93285
#	110249
#	121047
#	133044
#	146913
#	162128
#	175397
#	192205
#	206692
#	220518
#	235909
#	252836
#
# Disc length: 3541 seconds
#
# Revision: 2
# Processed by: cddbd v1.5.2PL0 Copyright (c) Steve Scherf et al.
# Submitted via: audiograbber 1.83.01
#
DISCID=fd0dd312
DTITLE=Various Artist - Bush Kids To Beach - Rural Aid Appeal Volume 17
DYEAR=2001
DGENRE=Country
TTITLE0=John Williamson - Three Sons
TTITLE1=Sara Storer - Eerie Wind
TTITLE2=Brendon Walmsley - Last Of The Big Gun Drovers
TTITLE3=Webb Bros - On The Old Verandah
TTITLE4=Bullamanka - Wild Horses
TTITLE5=Crosby, Hammond and Crosby - One More For The Road
TTITLE6=Peter Caulton - One For The Kangaroo
TTITLE7=Chad Morgan - Don't Drink The Water
TTITLE8=Reg Poole - Australian Country Music Hall Of Fame
TTITLE9=The Whiteliners - Un-tamworthy
TTITLE10=Dave McCallum - Come And Have A Beer Mate
TTITLE11=Brett Goodwin - Easy Chair
TTITLE12=Col Elliott - See How Things Are Changed
TTITLE13=Owen Blundell - My True Love (Duet with Isabella)
TTITLE14=Terry Gordon - Divers Do It Deeper
TTITLE15=Pixie Jenkins - Diggers Of The Anzac
TTITLE16=Jimmy Little - Yorta Yorta Man
TTITLE17=Bushwackers - Flash Jack From Gundagai
EXTD=
EXTT0=
EXTT1=
EXTT2=
EXTT3=
EXTT4=
EXTT5=
EXTT6=
EXTT7=
EXTT8=
EXTT9=
EXTT10=
EXTT11=
EXTT12=
EXTT13=
EXTT14=
EXTT15=
EXTT16=
EXTT17=
PLAYORDER=
